<svg width="77" height="142" viewBox="0 0 77 142" fill="none" xmlns="http://www.w3.org/2000/svg">
<path d="M54.125 65.625V59.375C54.125 56.0598 52.808 52.8804 50.4638 50.5362C48.1196 48.192 44.9402 46.875 41.625 46.875H16.625C13.3098 46.875 10.1304 48.192 7.78617 50.5362C5.44196 52.8804 4.125 56.0598 4.125 59.375V65.625" stroke="black" stroke-width="2" stroke-linecap="round" stroke-linejoin="round"/>
<path d="M29.125 34.375C36.0286 34.375 41.625 28.7786 41.625 21.875C41.625 14.9714 36.0286 9.375 29.125 9.375C22.2214 9.375 16.625 14.9714 16.625 21.875C16.625 28.7786 22.2214 34.375 29.125 34.375Z" stroke="black" stroke-width="2" stroke-linecap="round" stroke-linejoin="round"/>
<path d="M72.875 65.625V59.375C72.8729 56.6054 71.9511 53.9149 70.2543 51.726C68.5574 49.5371 66.1817 47.9736 63.5 47.2812" stroke="black" stroke-width="2" stroke-linecap="round" stroke-linejoin="round"/>
<path d="M51 9.78125C53.6888 10.4697 56.072 12.0334 57.7739 14.226C59.4758 16.4185 60.3995 19.1151 60.3995 21.8906C60.3995 24.6662 59.4758 27.3627 57.7739 29.5553C56.072 31.7478 53.6888 33.3116 51 34" stroke="black" stroke-width="2" stroke-linecap="round" stroke-linejoin="round"/>
<path d="M21.2164 109.3C20.2964 109.3 19.4831 109.117 18.7764 108.75C18.0697 108.377 17.5164 107.86 17.1164 107.2C16.7164 106.54 16.5164 105.77 16.5164 104.89C16.5164 104.03 16.7197 103.253 17.1264 102.56C17.5397 101.867 18.1597 101.333 18.9864 100.96L18.9564 101.61C18.2831 101.283 17.7664 100.823 17.4064 100.23C17.0464 99.63 16.8664 98.9667 16.8664 98.24C16.8664 97.4267 17.0531 96.7267 17.4264 96.14C17.7997 95.5533 18.3131 95.1 18.9664 94.78C19.6197 94.46 20.3697 94.3 21.2164 94.3C22.0631 94.3 22.8131 94.46 23.4664 94.78C24.1197 95.1 24.6331 95.5533 25.0064 96.14C25.3797 96.7267 25.5664 97.4267 25.5664 98.24C25.5664 98.9667 25.3964 99.6267 25.0564 100.22C24.7164 100.807 24.1931 101.27 23.4864 101.61L23.4464 100.97C24.2731 101.33 24.8931 101.86 25.3064 102.56C25.7264 103.253 25.9364 104.03 25.9364 104.89C25.9364 105.77 25.7331 106.54 25.3264 107.2C24.9264 107.86 24.3697 108.377 23.6564 108.75C22.9497 109.117 22.1364 109.3 21.2164 109.3ZM21.2164 107.6C22.0564 107.6 22.7364 107.37 23.2564 106.91C23.7831 106.443 24.0464 105.77 24.0464 104.89C24.0464 104.003 23.7864 103.33 23.2664 102.87C22.7531 102.403 22.0697 102.17 21.2164 102.17C20.3697 102.17 19.6864 102.403 19.1664 102.87C18.6531 103.33 18.3964 104.003 18.3964 104.89C18.3964 105.77 18.6564 106.443 19.1764 106.91C19.6964 107.37 20.3764 107.6 21.2164 107.6ZM21.2164 100.46C21.9497 100.46 22.5431 100.277 22.9964 99.91C23.4497 99.5367 23.6764 98.98 23.6764 98.24C23.6764 97.5 23.4497 96.9467 22.9964 96.58C22.5431 96.2067 21.9497 96.02 21.2164 96.02C20.4897 96.02 19.8964 96.2067 19.4364 96.58C18.9831 96.9467 18.7564 97.5 18.7564 98.24C18.7564 98.98 18.9831 99.5367 19.4364 99.91C19.8964 100.277 20.4897 100.46 21.2164 100.46ZM33.3928 109.3C32.4595 109.3 31.6261 109.09 30.8928 108.67C30.1661 108.243 29.5895 107.667 29.1628 106.94C28.7428 106.207 28.5328 105.373 28.5328 104.44V99.16C28.5328 98.2267 28.7428 97.3933 29.1628 96.66C29.5895 95.9267 30.1661 95.35 30.8928 94.93C31.6261 94.51 32.4595 94.3 33.3928 94.3C34.3261 94.3 35.1595 94.51 35.8928 94.93C36.6261 95.35 37.2028 95.9267 37.6228 96.66C38.0428 97.3933 38.2528 98.2267 38.2528 99.16V104.44C38.2528 105.373 38.0428 106.207 37.6228 106.94C37.2028 107.667 36.6261 108.243 35.8928 108.67C35.1595 109.09 34.3261 109.3 33.3928 109.3ZM33.3928 107.59C33.9595 107.59 34.4728 107.453 34.9328 107.18C35.3928 106.907 35.7595 106.54 36.0328 106.08C36.3061 105.613 36.4428 105.1 36.4428 104.54V99.05C36.4428 98.4833 36.3061 97.97 36.0328 97.51C35.7595 97.05 35.3928 96.6833 34.9328 96.41C34.4728 96.1367 33.9595 96 33.3928 96C32.8328 96 32.3195 96.1367 31.8528 96.41C31.3928 96.6833 31.0261 97.05 30.7528 97.51C30.4795 97.97 30.3428 98.4833 30.3428 99.05V104.54C30.3428 105.1 30.4795 105.613 30.7528 106.08C31.0261 106.54 31.3928 106.907 31.8528 107.18C32.3195 107.453 32.8328 107.59 33.3928 107.59ZM42.6523 109L41.4523 107.8L54.6723 94.6L55.8723 95.8L42.6523 109ZM52.8723 109.3C52.2123 109.3 51.609 109.14 51.0623 108.82C50.5223 108.493 50.089 108.06 49.7623 107.52C49.4357 106.973 49.2723 106.367 49.2723 105.7C49.2723 105.047 49.439 104.447 49.7723 103.9C50.1057 103.353 50.5457 102.917 51.0923 102.59C51.639 102.263 52.2323 102.1 52.8723 102.1C53.5323 102.1 54.1357 102.263 54.6823 102.59C55.229 102.91 55.6623 103.343 55.9823 103.89C56.309 104.43 56.4723 105.033 56.4723 105.7C56.4723 106.367 56.309 106.973 55.9823 107.52C55.6623 108.06 55.229 108.493 54.6823 108.82C54.1357 109.14 53.5323 109.3 52.8723 109.3ZM52.8723 107.73C53.239 107.73 53.5757 107.637 53.8823 107.45C54.1957 107.263 54.4423 107.017 54.6223 106.71C54.809 106.403 54.9023 106.067 54.9023 105.7C54.9023 105.333 54.809 104.997 54.6223 104.69C54.4423 104.377 54.1957 104.13 53.8823 103.95C53.5757 103.763 53.239 103.67 52.8723 103.67C52.5057 103.67 52.169 103.763 51.8623 103.95C51.5557 104.13 51.309 104.377 51.1223 104.69C50.9357 104.997 50.8423 105.333 50.8423 105.7C50.8423 106.067 50.9357 106.403 51.1223 106.71C51.309 107.017 51.5557 107.263 51.8623 107.45C52.169 107.637 52.5057 107.73 52.8723 107.73ZM44.4523 101.5C43.7923 101.5 43.189 101.34 42.6423 101.02C42.0957 100.693 41.659 100.26 41.3323 99.72C41.0123 99.1733 40.8523 98.5667 40.8523 97.9C40.8523 97.2467 41.019 96.6467 41.3523 96.1C41.6857 95.5533 42.1257 95.1167 42.6723 94.79C43.219 94.4633 43.8123 94.3 44.4523 94.3C45.1123 94.3 45.7123 94.4633 46.2523 94.79C46.799 95.11 47.2357 95.5433 47.5623 96.09C47.889 96.63 48.0523 97.2333 48.0523 97.9C48.0523 98.5667 47.889 99.1733 47.5623 99.72C47.2357 100.26 46.799 100.693 46.2523 101.02C45.7123 101.34 45.1123 101.5 44.4523 101.5ZM44.4523 99.93C44.819 99.93 45.1557 99.8367 45.4623 99.65C45.7757 99.4633 46.0223 99.2167 46.2023 98.91C46.389 98.6033 46.4823 98.2667 46.4823 97.9C46.4823 97.5333 46.389 97.1967 46.2023 96.89C46.0223 96.5767 45.7757 96.33 45.4623 96.15C45.1557 95.9633 44.819 95.87 44.4523 95.87C44.0857 95.87 43.749 95.9633 43.4423 96.15C43.1357 96.33 42.889 96.5767 42.7023 96.89C42.5157 97.1967 42.4223 97.5333 42.4223 97.9C42.4223 98.2667 42.5157 98.6033 42.7023 98.91C42.889 99.2167 43.1357 99.4633 43.4423 99.65C43.749 99.8367 44.0857 99.93 44.4523 99.93ZM5.52406 136V123.29H0.614063V121.6H12.2141V123.29H7.30406V136H5.52406ZM16.8847 136.3C15.8247 136.3 14.898 136.067 14.1047 135.6C13.318 135.127 12.7047 134.47 12.2647 133.63C11.8247 132.783 11.6047 131.797 11.6047 130.67C11.6047 129.49 11.8214 128.47 12.2547 127.61C12.688 126.743 13.2914 126.077 14.0647 125.61C14.8447 125.137 15.758 124.9 16.8047 124.9C17.8914 124.9 18.8147 125.15 19.5747 125.65C20.3414 126.15 20.9147 126.863 21.2947 127.79C21.6814 128.717 21.848 129.82 21.7947 131.1H19.9947V130.46C19.9747 129.133 19.7047 128.143 19.1847 127.49C18.6647 126.83 17.8914 126.5 16.8647 126.5C15.7647 126.5 14.928 126.853 14.3547 127.56C13.7814 128.267 13.4947 129.28 13.4947 130.6C13.4947 131.873 13.7814 132.86 14.3547 133.56C14.928 134.26 15.7447 134.61 16.8047 134.61C17.518 134.61 18.138 134.447 18.6647 134.12C19.1914 133.793 19.6047 133.323 19.9047 132.71L21.6147 133.3C21.1947 134.253 20.5614 134.993 19.7147 135.52C18.8747 136.04 17.9314 136.3 16.8847 136.3ZM12.8947 131.1V129.67H20.8747V131.1H12.8947ZM31.4181 136V130.59C31.4181 130.077 31.3715 129.583 31.2781 129.11C31.1915 128.637 31.0348 128.213 30.8081 127.84C30.5881 127.46 30.2881 127.16 29.9081 126.94C29.5348 126.72 29.0615 126.61 28.4881 126.61C28.0415 126.61 27.6348 126.687 27.2681 126.84C26.9081 126.987 26.5981 127.213 26.3381 127.52C26.0781 127.827 25.8748 128.213 25.7281 128.68C25.5881 129.14 25.5181 129.683 25.5181 130.31L24.3481 129.95C24.3481 128.903 24.5348 128.007 24.9081 127.26C25.2881 126.507 25.8181 125.93 26.4981 125.53C27.1848 125.123 27.9915 124.92 28.9181 124.92C29.6181 124.92 30.2148 125.03 30.7081 125.25C31.2015 125.47 31.6115 125.763 31.9381 126.13C32.2648 126.49 32.5215 126.897 32.7081 127.35C32.8948 127.797 33.0248 128.253 33.0981 128.72C33.1781 129.18 33.2181 129.617 33.2181 130.03V136H31.4181ZM23.7181 136V125.2H25.3181V128.09H25.5181V136H23.7181ZM38.888 136.3C38.0813 136.3 37.4046 136.153 36.858 135.86C36.318 135.56 35.908 135.167 35.628 134.68C35.3546 134.193 35.218 133.66 35.218 133.08C35.218 132.513 35.3246 132.023 35.538 131.61C35.758 131.19 36.0646 130.843 36.458 130.57C36.8513 130.29 37.3213 130.07 37.868 129.91C38.3813 129.77 38.9546 129.65 39.588 129.55C40.228 129.443 40.8746 129.347 41.528 129.26C42.1813 129.173 42.7913 129.09 43.358 129.01L42.718 129.38C42.738 128.42 42.5446 127.71 42.138 127.25C41.738 126.79 41.0446 126.56 40.058 126.56C39.4046 126.56 38.8313 126.71 38.338 127.01C37.8513 127.303 37.508 127.783 37.308 128.45L35.618 127.94C35.878 126.993 36.3813 126.25 37.128 125.71C37.8746 125.17 38.858 124.9 40.078 124.9C41.058 124.9 41.898 125.077 42.598 125.43C43.3046 125.777 43.8113 126.303 44.118 127.01C44.2713 127.343 44.368 127.707 44.408 128.1C44.448 128.487 44.468 128.893 44.468 129.32V136H42.888V133.41L43.258 133.65C42.8513 134.523 42.2813 135.183 41.548 135.63C40.8213 136.077 39.9346 136.3 38.888 136.3ZM39.158 134.81C39.798 134.81 40.3513 134.697 40.818 134.47C41.2913 134.237 41.6713 133.933 41.958 133.56C42.2446 133.18 42.4313 132.767 42.518 132.32C42.618 131.987 42.6713 131.617 42.678 131.21C42.6913 130.797 42.698 130.48 42.698 130.26L43.318 130.53C42.738 130.61 42.168 130.687 41.608 130.76C41.048 130.833 40.518 130.913 40.018 131C39.518 131.08 39.068 131.177 38.668 131.29C38.3746 131.383 38.098 131.503 37.838 131.65C37.5846 131.797 37.378 131.987 37.218 132.22C37.0646 132.447 36.988 132.73 36.988 133.07C36.988 133.363 37.0613 133.643 37.208 133.91C37.3613 134.177 37.5946 134.393 37.908 134.56C38.228 134.727 38.6446 134.81 39.158 134.81ZM54.758 136V130.59C54.758 130.077 54.7113 129.583 54.618 129.11C54.5313 128.637 54.3746 128.213 54.148 127.84C53.928 127.46 53.628 127.16 53.248 126.94C52.8746 126.72 52.4013 126.61 51.828 126.61C51.3813 126.61 50.9746 126.687 50.608 126.84C50.248 126.987 49.938 127.213 49.678 127.52C49.418 127.827 49.2146 128.213 49.068 128.68C48.928 129.14 48.858 129.683 48.858 130.31L47.688 129.95C47.688 128.903 47.8746 128.007 48.248 127.26C48.628 126.507 49.158 125.93 49.838 125.53C50.5246 125.123 51.3313 124.92 52.258 124.92C52.958 124.92 53.5546 125.03 54.048 125.25C54.5413 125.47 54.9513 125.763 55.278 126.13C55.6046 126.49 55.8613 126.897 56.048 127.35C56.2346 127.797 56.3646 128.253 56.438 128.72C56.518 129.18 56.558 129.617 56.558 130.03V136H54.758ZM47.058 136V125.2H48.658V128.09H48.858V136H47.058ZM65.1878 136C64.5478 136.127 63.9145 136.177 63.2878 136.15C62.6678 136.13 62.1145 136.007 61.6278 135.78C61.1411 135.547 60.7711 135.187 60.5178 134.7C60.3045 134.273 60.1878 133.843 60.1678 133.41C60.1545 132.97 60.1478 132.473 60.1478 131.92V122.2H61.9278V131.84C61.9278 132.28 61.9311 132.657 61.9378 132.97C61.9511 133.283 62.0211 133.553 62.1478 133.78C62.3878 134.207 62.7678 134.457 63.2878 134.53C63.8145 134.603 64.4478 134.583 65.1878 134.47V136ZM57.9578 126.67V125.2H65.1878V126.67H57.9578ZM71.4605 136.29C70.1738 136.29 69.1171 136.01 68.2905 135.45C67.4705 134.883 66.9671 134.093 66.7805 133.08L68.6005 132.79C68.7471 133.377 69.0838 133.843 69.6105 134.19C70.1371 134.53 70.7905 134.7 71.5705 134.7C72.3105 134.7 72.8905 134.547 73.3105 134.24C73.7305 133.933 73.9405 133.517 73.9405 132.99C73.9405 132.683 73.8705 132.437 73.7305 132.25C73.5905 132.057 73.3005 131.877 72.8605 131.71C72.4271 131.543 71.7705 131.343 70.8905 131.11C69.9371 130.857 69.1871 130.593 68.6405 130.32C68.0938 130.047 67.7038 129.73 67.4705 129.37C67.2371 129.01 67.1205 128.573 67.1205 128.06C67.1205 127.427 67.2938 126.873 67.6405 126.4C67.9871 125.92 68.4705 125.55 69.0905 125.29C69.7171 125.03 70.4438 124.9 71.2705 124.9C72.0905 124.9 72.8238 125.03 73.4705 125.29C74.1171 125.55 74.6371 125.92 75.0305 126.4C75.4305 126.873 75.6671 127.427 75.7405 128.06L73.9205 128.39C73.8338 127.81 73.5538 127.353 73.0805 127.02C72.6138 126.687 72.0105 126.51 71.2705 126.49C70.5705 126.463 70.0005 126.587 69.5605 126.86C69.1271 127.133 68.9105 127.503 68.9105 127.97C68.9105 128.23 68.9905 128.453 69.1505 128.64C69.3171 128.827 69.6205 129.003 70.0605 129.17C70.5071 129.337 71.1538 129.527 72.0005 129.74C72.9538 129.98 73.7038 130.243 74.2505 130.53C74.8038 130.81 75.1971 131.143 75.4305 131.53C75.6638 131.91 75.7805 132.38 75.7805 132.94C75.7805 133.98 75.3971 134.8 74.6305 135.4C73.8638 135.993 72.8071 136.29 71.4605 136.29Z" fill="#1A1A1A" fill-opacity="0.75"/>
</svg>
