<svg width="93" height="142" viewBox="0 0 93 142" fill="none" xmlns="http://www.w3.org/2000/svg">
<path d="M18.375 28.125L46.5 6.25L74.625 28.125V62.5C74.625 64.1576 73.9665 65.7473 72.7944 66.9194C71.6223 68.0915 70.0326 68.75 68.375 68.75H24.625C22.9674 68.75 21.3777 68.0915 20.2056 66.9194C19.0335 65.7473 18.375 64.1576 18.375 62.5V28.125Z" stroke="black" stroke-width="2" stroke-linecap="round" stroke-linejoin="round"/>
<path d="M37.125 68.75V37.5H55.875V68.75" stroke="black" stroke-width="2" stroke-linecap="round" stroke-linejoin="round"/>
<path d="M26.4453 108.99L26.4553 107.39L32.8453 101.64C33.3786 101.16 33.7353 100.707 33.9153 100.28C34.102 99.8467 34.1953 99.4033 34.1953 98.95C34.1953 98.3967 34.0686 97.8967 33.8153 97.45C33.562 97.0033 33.2153 96.65 32.7753 96.39C32.342 96.13 31.8486 96 31.2953 96C30.722 96 30.212 96.1367 29.7653 96.41C29.3186 96.6767 28.9653 97.0333 28.7053 97.48C28.452 97.9267 28.3286 98.4133 28.3353 98.94H26.5153C26.5153 98.0333 26.7253 97.2333 27.1453 96.54C27.5653 95.84 28.1353 95.2933 28.8553 94.9C29.582 94.5 30.4053 94.3 31.3253 94.3C32.2186 94.3 33.0186 94.5067 33.7253 94.92C34.432 95.3267 34.9886 95.8833 35.3953 96.59C35.8086 97.29 36.0153 98.0833 36.0153 98.97C36.0153 99.5967 35.9353 100.14 35.7753 100.6C35.622 101.06 35.382 101.487 35.0553 101.88C34.7286 102.267 34.3186 102.68 33.8253 103.12L28.5153 107.89L28.2853 107.29H36.0153V108.99H26.4453ZM43.2678 109.3C42.3345 109.3 41.5011 109.09 40.7678 108.67C40.0411 108.243 39.4645 107.667 39.0378 106.94C38.6178 106.207 38.4078 105.373 38.4078 104.44V99.16C38.4078 98.2267 38.6178 97.3933 39.0378 96.66C39.4645 95.9267 40.0411 95.35 40.7678 94.93C41.5011 94.51 42.3345 94.3 43.2678 94.3C44.2011 94.3 45.0345 94.51 45.7678 94.93C46.5011 95.35 47.0778 95.9267 47.4978 96.66C47.9178 97.3933 48.1278 98.2267 48.1278 99.16V104.44C48.1278 105.373 47.9178 106.207 47.4978 106.94C47.0778 107.667 46.5011 108.243 45.7678 108.67C45.0345 109.09 44.2011 109.3 43.2678 109.3ZM43.2678 107.59C43.8345 107.59 44.3478 107.453 44.8078 107.18C45.2678 106.907 45.6345 106.54 45.9078 106.08C46.1811 105.613 46.3178 105.1 46.3178 104.54V99.05C46.3178 98.4833 46.1811 97.97 45.9078 97.51C45.6345 97.05 45.2678 96.6833 44.8078 96.41C44.3478 96.1367 43.8345 96 43.2678 96C42.7078 96 42.1945 96.1367 41.7278 96.41C41.2678 96.6833 40.9011 97.05 40.6278 97.51C40.3545 97.97 40.2178 98.4833 40.2178 99.05V104.54C40.2178 105.1 40.3545 105.613 40.6278 106.08C40.9011 106.54 41.2678 106.907 41.7278 107.18C42.1945 107.453 42.7078 107.59 43.2678 107.59ZM52.5273 109L51.3273 107.8L64.5473 94.6L65.7473 95.8L52.5273 109ZM62.7473 109.3C62.0873 109.3 61.484 109.14 60.9373 108.82C60.3973 108.493 59.964 108.06 59.6373 107.52C59.3107 106.973 59.1473 106.367 59.1473 105.7C59.1473 105.047 59.314 104.447 59.6473 103.9C59.9807 103.353 60.4207 102.917 60.9673 102.59C61.514 102.263 62.1073 102.1 62.7473 102.1C63.4073 102.1 64.0107 102.263 64.5573 102.59C65.104 102.91 65.5373 103.343 65.8573 103.89C66.184 104.43 66.3473 105.033 66.3473 105.7C66.3473 106.367 66.184 106.973 65.8573 107.52C65.5373 108.06 65.104 108.493 64.5573 108.82C64.0107 109.14 63.4073 109.3 62.7473 109.3ZM62.7473 107.73C63.114 107.73 63.4507 107.637 63.7573 107.45C64.0707 107.263 64.3173 107.017 64.4973 106.71C64.684 106.403 64.7773 106.067 64.7773 105.7C64.7773 105.333 64.684 104.997 64.4973 104.69C64.3173 104.377 64.0707 104.13 63.7573 103.95C63.4507 103.763 63.114 103.67 62.7473 103.67C62.3807 103.67 62.044 103.763 61.7373 103.95C61.4307 104.13 61.184 104.377 60.9973 104.69C60.8107 104.997 60.7173 105.333 60.7173 105.7C60.7173 106.067 60.8107 106.403 60.9973 106.71C61.184 107.017 61.4307 107.263 61.7373 107.45C62.044 107.637 62.3807 107.73 62.7473 107.73ZM54.3273 101.5C53.6673 101.5 53.064 101.34 52.5173 101.02C51.9707 100.693 51.534 100.26 51.2073 99.72C50.8873 99.1733 50.7273 98.5667 50.7273 97.9C50.7273 97.2467 50.894 96.6467 51.2273 96.1C51.5607 95.5533 52.0007 95.1167 52.5473 94.79C53.094 94.4633 53.6873 94.3 54.3273 94.3C54.9873 94.3 55.5873 94.4633 56.1273 94.79C56.674 95.11 57.1107 95.5433 57.4373 96.09C57.764 96.63 57.9273 97.2333 57.9273 97.9C57.9273 98.5667 57.764 99.1733 57.4373 99.72C57.1107 100.26 56.674 100.693 56.1273 101.02C55.5873 101.34 54.9873 101.5 54.3273 101.5ZM54.3273 99.93C54.694 99.93 55.0307 99.8367 55.3373 99.65C55.6507 99.4633 55.8973 99.2167 56.0773 98.91C56.264 98.6033 56.3573 98.2667 56.3573 97.9C56.3573 97.5333 56.264 97.1967 56.0773 96.89C55.8973 96.5767 55.6507 96.33 55.3373 96.15C55.0307 95.9633 54.694 95.87 54.3273 95.87C53.9607 95.87 53.624 95.9633 53.3173 96.15C53.0107 96.33 52.764 96.5767 52.5773 96.89C52.3907 97.1967 52.2973 97.5333 52.2973 97.9C52.2973 98.2667 52.3907 98.6033 52.5773 98.91C52.764 99.2167 53.0107 99.4633 53.3173 99.65C53.624 99.8367 53.9607 99.93 54.3273 99.93ZM1.85977 136V121.6H3.63977V134.31H10.3198V136H1.85977ZM15.0813 136.3C14.2747 136.3 13.598 136.153 13.0513 135.86C12.5113 135.56 12.1013 135.167 11.8213 134.68C11.548 134.193 11.4113 133.66 11.4113 133.08C11.4113 132.513 11.518 132.023 11.7313 131.61C11.9513 131.19 12.258 130.843 12.6513 130.57C13.0447 130.29 13.5147 130.07 14.0613 129.91C14.5747 129.77 15.148 129.65 15.7813 129.55C16.4213 129.443 17.068 129.347 17.7213 129.26C18.3747 129.173 18.9847 129.09 19.5513 129.01L18.9113 129.38C18.9313 128.42 18.738 127.71 18.3313 127.25C17.9313 126.79 17.238 126.56 16.2513 126.56C15.598 126.56 15.0247 126.71 14.5313 127.01C14.0447 127.303 13.7013 127.783 13.5013 128.45L11.8113 127.94C12.0713 126.993 12.5747 126.25 13.3213 125.71C14.068 125.17 15.0513 124.9 16.2713 124.9C17.2513 124.9 18.0913 125.077 18.7913 125.43C19.498 125.777 20.0047 126.303 20.3113 127.01C20.4647 127.343 20.5613 127.707 20.6013 128.1C20.6413 128.487 20.6613 128.893 20.6613 129.32V136H19.0813V133.41L19.4513 133.65C19.0447 134.523 18.4747 135.183 17.7413 135.63C17.0147 136.077 16.128 136.3 15.0813 136.3ZM15.3513 134.81C15.9913 134.81 16.5447 134.697 17.0113 134.47C17.4847 134.237 17.8647 133.933 18.1513 133.56C18.438 133.18 18.6247 132.767 18.7113 132.32C18.8113 131.987 18.8647 131.617 18.8713 131.21C18.8847 130.797 18.8913 130.48 18.8913 130.26L19.5113 130.53C18.9313 130.61 18.3613 130.687 17.8013 130.76C17.2413 130.833 16.7113 130.913 16.2113 131C15.7113 131.08 15.2613 131.177 14.8613 131.29C14.568 131.383 14.2913 131.503 14.0313 131.65C13.778 131.797 13.5713 131.987 13.4113 132.22C13.258 132.447 13.1813 132.73 13.1813 133.07C13.1813 133.363 13.2547 133.643 13.4013 133.91C13.5547 134.177 13.788 134.393 14.1013 134.56C14.4213 134.727 14.838 134.81 15.3513 134.81ZM30.9513 136V130.59C30.9513 130.077 30.9047 129.583 30.8113 129.11C30.7247 128.637 30.568 128.213 30.3413 127.84C30.1213 127.46 29.8213 127.16 29.4413 126.94C29.068 126.72 28.5947 126.61 28.0213 126.61C27.5747 126.61 27.168 126.687 26.8013 126.84C26.4413 126.987 26.1313 127.213 25.8713 127.52C25.6113 127.827 25.408 128.213 25.2613 128.68C25.1213 129.14 25.0513 129.683 25.0513 130.31L23.8813 129.95C23.8813 128.903 24.068 128.007 24.4413 127.26C24.8213 126.507 25.3513 125.93 26.0313 125.53C26.718 125.123 27.5247 124.92 28.4513 124.92C29.1513 124.92 29.748 125.03 30.2413 125.25C30.7347 125.47 31.1447 125.763 31.4713 126.13C31.798 126.49 32.0547 126.897 32.2413 127.35C32.428 127.797 32.558 128.253 32.6313 128.72C32.7113 129.18 32.7513 129.617 32.7513 130.03V136H30.9513ZM23.2513 136V125.2H24.8513V128.09H25.0513V136H23.2513ZM39.4935 136.3C38.4868 136.3 37.6235 136.05 36.9035 135.55C36.1835 135.043 35.6268 134.36 35.2335 133.5C34.8468 132.64 34.6535 131.67 34.6535 130.59C34.6535 129.51 34.8468 128.54 35.2335 127.68C35.6268 126.82 36.1835 126.143 36.9035 125.65C37.6235 125.15 38.4835 124.9 39.4835 124.9C40.5035 124.9 41.3602 125.147 42.0535 125.64C42.7468 126.133 43.2702 126.81 43.6235 127.67C43.9835 128.53 44.1635 129.503 44.1635 130.59C44.1635 131.663 43.9835 132.633 43.6235 133.5C43.2702 134.36 42.7468 135.043 42.0535 135.55C41.3602 136.05 40.5068 136.3 39.4935 136.3ZM39.7135 134.67C40.4402 134.67 41.0368 134.497 41.5035 134.15C41.9702 133.797 42.3135 133.313 42.5335 132.7C42.7602 132.08 42.8735 131.377 42.8735 130.59C42.8735 129.79 42.7602 129.087 42.5335 128.48C42.3135 127.867 41.9735 127.39 41.5135 127.05C41.0535 126.703 40.4702 126.53 39.7635 126.53C39.0302 126.53 38.4235 126.71 37.9435 127.07C37.4702 127.43 37.1168 127.917 36.8835 128.53C36.6568 129.143 36.5435 129.83 36.5435 130.59C36.5435 131.357 36.6602 132.05 36.8935 132.67C37.1268 133.283 37.4768 133.77 37.9435 134.13C38.4168 134.49 39.0068 134.67 39.7135 134.67ZM42.8735 136V128.05H42.6735V121.6H44.4635V136H42.8735ZM47.4652 136V121.3H49.2452V136H47.4652ZM56.8457 136.3C55.7724 136.3 54.8457 136.057 54.0657 135.57C53.2924 135.083 52.6957 134.41 52.2757 133.55C51.8557 132.69 51.6457 131.703 51.6457 130.59C51.6457 129.457 51.859 128.463 52.2857 127.61C52.7124 126.757 53.3157 126.093 54.0957 125.62C54.8757 125.14 55.7924 124.9 56.8457 124.9C57.9257 124.9 58.8557 125.143 59.6357 125.63C60.4157 126.11 61.0124 126.78 61.4257 127.64C61.8457 128.493 62.0557 129.477 62.0557 130.59C62.0557 131.717 61.8457 132.71 61.4257 133.57C61.0057 134.423 60.4057 135.093 59.6257 135.58C58.8457 136.06 57.919 136.3 56.8457 136.3ZM56.8457 134.61C57.9657 134.61 58.799 134.237 59.3457 133.49C59.8924 132.743 60.1657 131.777 60.1657 130.59C60.1657 129.37 59.889 128.4 59.3357 127.68C58.7824 126.953 57.9524 126.59 56.8457 126.59C56.0924 126.59 55.4724 126.76 54.9857 127.1C54.499 127.44 54.1357 127.91 53.8957 128.51C53.6557 129.11 53.5357 129.803 53.5357 130.59C53.5357 131.803 53.8157 132.777 54.3757 133.51C54.9357 134.243 55.759 134.61 56.8457 134.61ZM64.2574 136V125.2H65.8474V127.81L65.5874 127.47C65.7141 127.137 65.8774 126.83 66.0774 126.55C66.2841 126.27 66.5141 126.04 66.7674 125.86C67.0474 125.633 67.3641 125.46 67.7174 125.34C68.0708 125.22 68.4308 125.15 68.7974 125.13C69.1641 125.103 69.5074 125.127 69.8274 125.2V126.87C69.4541 126.77 69.0441 126.743 68.5974 126.79C68.1508 126.837 67.7374 127 67.3574 127.28C67.0108 127.527 66.7408 127.827 66.5474 128.18C66.3608 128.533 66.2308 128.917 66.1574 129.33C66.0841 129.737 66.0474 130.153 66.0474 130.58V136H64.2574ZM75.763 136.3C74.7564 136.3 73.893 136.05 73.173 135.55C72.453 135.043 71.8964 134.36 71.503 133.5C71.1164 132.64 70.923 131.67 70.923 130.59C70.923 129.51 71.1164 128.54 71.503 127.68C71.8964 126.82 72.453 126.143 73.173 125.65C73.893 125.15 74.753 124.9 75.753 124.9C76.773 124.9 77.6297 125.147 78.323 125.64C79.0164 126.133 79.5397 126.81 79.893 127.67C80.253 128.53 80.433 129.503 80.433 130.59C80.433 131.663 80.253 132.633 79.893 133.5C79.5397 134.36 79.0164 135.043 78.323 135.55C77.6297 136.05 76.7764 136.3 75.763 136.3ZM75.983 134.67C76.7097 134.67 77.3064 134.497 77.773 134.15C78.2397 133.797 78.583 133.313 78.803 132.7C79.0297 132.08 79.143 131.377 79.143 130.59C79.143 129.79 79.0297 129.087 78.803 128.48C78.583 127.867 78.243 127.39 77.783 127.05C77.323 126.703 76.7397 126.53 76.033 126.53C75.2997 126.53 74.693 126.71 74.213 127.07C73.7397 127.43 73.3864 127.917 73.153 128.53C72.9264 129.143 72.813 129.83 72.813 130.59C72.813 131.357 72.9297 132.05 73.163 132.67C73.3964 133.283 73.7464 133.77 74.213 134.13C74.6864 134.49 75.2764 134.67 75.983 134.67ZM79.143 136V128.05H78.943V121.6H80.733V136H79.143ZM87.6148 136.29C86.3281 136.29 85.2714 136.01 84.4448 135.45C83.6248 134.883 83.1214 134.093 82.9348 133.08L84.7548 132.79C84.9014 133.377 85.2381 133.843 85.7648 134.19C86.2914 134.53 86.9448 134.7 87.7248 134.7C88.4648 134.7 89.0448 134.547 89.4648 134.24C89.8848 133.933 90.0948 133.517 90.0948 132.99C90.0948 132.683 90.0248 132.437 89.8848 132.25C89.7448 132.057 89.4548 131.877 89.0148 131.71C88.5814 131.543 87.9248 131.343 87.0448 131.11C86.0914 130.857 85.3414 130.593 84.7948 130.32C84.2481 130.047 83.8581 129.73 83.6248 129.37C83.3914 129.01 83.2748 128.573 83.2748 128.06C83.2748 127.427 83.4481 126.873 83.7948 126.4C84.1414 125.92 84.6248 125.55 85.2448 125.29C85.8714 125.03 86.5981 124.9 87.4248 124.9C88.2448 124.9 88.9781 125.03 89.6248 125.29C90.2714 125.55 90.7914 125.92 91.1848 126.4C91.5848 126.873 91.8214 127.427 91.8948 128.06L90.0748 128.39C89.9881 127.81 89.7081 127.353 89.2348 127.02C88.7681 126.687 88.1648 126.51 87.4248 126.49C86.7248 126.463 86.1548 126.587 85.7148 126.86C85.2814 127.133 85.0648 127.503 85.0648 127.97C85.0648 128.23 85.1448 128.453 85.3048 128.64C85.4714 128.827 85.7748 129.003 86.2148 129.17C86.6614 129.337 87.3081 129.527 88.1548 129.74C89.1081 129.98 89.8581 130.243 90.4048 130.53C90.9581 130.81 91.3514 131.143 91.5848 131.53C91.8181 131.91 91.9348 132.38 91.9348 132.94C91.9348 133.98 91.5514 134.8 90.7848 135.4C90.0181 135.993 88.9614 136.29 87.6148 136.29Z" fill="#1A1A1A" fill-opacity="0.75"/>
</svg>
