<svg width="75" height="75" viewBox="0 0 75 75" fill="none" xmlns="http://www.w3.org/2000/svg">
<path d="M46.875 6.25H28.125C26.3991 6.25 25 7.64911 25 9.375V15.625C25 17.3509 26.3991 18.75 28.125 18.75H46.875C48.6009 18.75 50 17.3509 50 15.625V9.375C50 7.64911 48.6009 6.25 46.875 6.25Z" stroke="black" stroke-width="2" stroke-linecap="round" stroke-linejoin="round"/>
<path d="M50 12.5H56.25C57.9076 12.5 59.4973 13.1585 60.6694 14.3306C61.8415 15.5027 62.5 17.0924 62.5 18.75V62.5C62.5 64.1576 61.8415 65.7473 60.6694 66.9194C59.4973 68.0915 57.9076 68.75 56.25 68.75H18.75C17.0924 68.75 15.5027 68.0915 14.3306 66.9194C13.1585 65.7473 12.5 64.1576 12.5 62.5V18.75C12.5 17.0924 13.1585 15.5027 14.3306 14.3306C15.5027 13.1585 17.0924 12.5 18.75 12.5H25" stroke="black" stroke-width="2" stroke-linecap="round" stroke-linejoin="round"/>
<path d="M37.5 34.375H50" stroke="black" stroke-width="2" stroke-linecap="round" stroke-linejoin="round"/>
<path d="M37.5 50H50" stroke="black" stroke-width="2" stroke-linecap="round" stroke-linejoin="round"/>
<path d="M25 34.375H25.0313" stroke="black" stroke-width="2" stroke-linecap="round" stroke-linejoin="round"/>
<path d="M25 50H25.0313" stroke="black" stroke-width="2" stroke-linecap="round" stroke-linejoin="round"/>
</svg>
