<svg width="75" height="75" viewBox="0 0 75 75" fill="none" xmlns="http://www.w3.org/2000/svg">
<path d="M53.125 65.625V59.375C53.125 56.0598 51.808 52.8804 49.4638 50.5362C47.1196 48.192 43.9402 46.875 40.625 46.875H15.625C12.3098 46.875 9.13037 48.192 6.78617 50.5362C4.44196 52.8804 3.125 56.0598 3.125 59.375V65.625" stroke="black" stroke-width="2" stroke-linecap="round" stroke-linejoin="round"/>
<path d="M28.125 34.375C35.0286 34.375 40.625 28.7786 40.625 21.875C40.625 14.9714 35.0286 9.375 28.125 9.375C21.2214 9.375 15.625 14.9714 15.625 21.875C15.625 28.7786 21.2214 34.375 28.125 34.375Z" stroke="black" stroke-width="2" stroke-linecap="round" stroke-linejoin="round"/>
<path d="M71.875 65.625V59.375C71.8729 56.6054 70.9511 53.9149 69.2543 51.726C67.5574 49.5371 65.1817 47.9736 62.5 47.2812" stroke="black" stroke-width="2" stroke-linecap="round" stroke-linejoin="round"/>
<path d="M50 9.78125C52.6888 10.4697 55.072 12.0334 56.7739 14.226C58.4758 16.4185 59.3995 19.1151 59.3995 21.8906C59.3995 24.6662 58.4758 27.3627 56.7739 29.5553C55.072 31.7478 52.6888 33.3116 50 34" stroke="black" stroke-width="2" stroke-linecap="round" stroke-linejoin="round"/>
</svg>
