<svg width="140" height="240" viewBox="0 0 140 240" fill="none" xmlns="http://www.w3.org/2000/svg">
<path d="M136.7 150C138.8 152 139.2 155.6 136.5 157.8L49.2 231L41.6 237.4C40.5 238.4 38.8 238.4 37.6 237.5L20 224.2C18.4 223 18.3 220.5 19.9 219.2L26.7 213.5L98.9 153L132.7 148.6C133.9 148.4 135.1 148.7 136 149.2L136.7 150Z" fill="url(#paint0_linear_339_566)"/>
<path d="M136.7 150L135.8 149.3C136.1 149.4 136.4 149.7 136.7 150Z" fill="url(#paint1_linear_339_566)"/>
<path d="M113.5 132.3L135.8 149.2C134.9 148.7 133.8 148.4 132.5 148.6L98.7 153L70 156.8C68.8 157 67.7 156.7 66.8 156.2L65.7 155.4C63.6 153.4 63.3 149.7 66.1 147.5L81.9 135L109.6 131.4C111.1 131.1 112.4 131.5 113.5 132.3Z" fill="white"/>
<path d="M127.9 90.5L127.2 90C127.4 90.1 127.7 90.3 127.9 90.5Z" fill="url(#paint2_linear_339_566)"/>
<path d="M104.6 72.9L127.2 89.9C126.3 89.3 125.1 89 123.8 89.2L86.3 94.1L65.6 96.8L62.3 97.1C61.9 97.1 61.5 97 61.2 96.8L48.1 86.6L45.1 84.3L53.1 77.6L100.8 71.9C102.3 71.8 103.6 72.2 104.6 72.9Z" fill="white"/>
<path d="M121.5 16.8001C122.6 17.7001 122.7 19.3001 121.6 20.2001L113.5 27.0001L53.2 77.6001L45.2 84.3001L41.4 87.5001L26.5 100C23.7 102.4 24.3 106.2 26.6 108.1L3.20002 90.3001L2.9 90.0001C1.3 88.0001 1.20001 84.8001 3.60001 82.7001L90.8 9.60009L99.6 2.20008C100.4 1.50008 101.5 1.50009 102.3 2.10009L121.5 16.8001Z" fill="white"/>
<path d="M35.7 158.9L28.1 165.3C26.9 166.3 25.3 166.3 24.1 165.4L6.50001 152.1C4.90001 150.9 4.80001 148.4 6.40001 147.1L13.2 141.4L58.3 105.6L93.1 101.1C94.5 100.9 95.7 101.2 96.6 101.9L97.2 102.4C99.4 104.4 99.8 108.2 97 110.4L52.8 145.5L35.7 158.9Z" fill="white"/>
<path d="M65.5 96.9001L86.2 94.2001L87.4 95.1001L96.4 101.9C95.4 101.3 94.2 100.9 92.9 101.1L58.1 105.6L30.4 109.2C28.9 109.4 27.6 109 26.6 108.2L26.5 108.1C24.1 106.2 23.6 102.3 26.4 100L41.3 87.5001L48.1 86.6001L61.2 96.8001C61.5 97.0001 61.9 97.2001 62.3 97.1001L65.5 96.9001Z" fill="url(#paint3_linear_339_566)"/>
<path d="M87.4 95.1L86.2 94.2L123.7 89.3C125 89.1 126.2 89.4 127.1 90L127.8 90.5C130 92.5 130.4 96.3 127.6 98.5L81.8 134.9L66 147.4C63.2 149.6 63.6 153.3 65.6 155.3L52.5 145.4L96.7 110.3C99.5 108.1 99.1 104.2 96.9 102.3C96.7 102.1 96.5 102 96.3 101.8L87.4 95.1Z" fill="url(#paint4_linear_339_566)"/>
<path d="M48.1 86.7002L41.3 87.6002L45.1 84.4001L48.1 86.7002Z" fill="#010101"/>
<path d="M136.7 150H136.8" stroke="black" stroke-width="2" stroke-miterlimit="10"/>
<path d="M113.5 132.3L135.7 149.2" stroke="black" stroke-width="2" stroke-miterlimit="10"/>
<path d="M104.6 72.9001L127.2 90.0002" stroke="black" stroke-width="2" stroke-miterlimit="10"/>
<path d="M26.5 213.5L19.7 219.2C18.1 220.5 18.2 223 19.8 224.2L37.4 237.5C38.6 238.4 40.3 238.4 41.4 237.4L49 231" stroke="black" stroke-width="2" stroke-miterlimit="10"/>
<path d="M98.7 153L26.5 213.5" stroke="black" stroke-width="2" stroke-miterlimit="10"/>
<path d="M81.9 134.9L109.6 131.3C111.1 131.1 112.5 131.5 113.5 132.3" stroke="black" stroke-width="2" stroke-miterlimit="10"/>
<path d="M78.2 95.2001L65.6 96.8001L86.3 94.1001L123.8 89.2001C125.1 89.0001 126.3 89.3001 127.2 89.9001C127.4 90.1001 127.7 90.2001 127.9 90.4001C130.1 92.4001 130.5 96.2001 127.7 98.4001L81.9 134.8L66.1 147.3C63.3 149.5 63.7 153.2 65.7 155.2C66 155.5 66.4 155.8 66.8 156C67.7 156.5 68.8 156.7 70 156.6L98.7 152.8L132.5 148.4C133.7 148.2 134.9 148.5 135.8 149C136.1 149.2 136.5 149.4 136.7 149.7C138.8 151.7 139.2 155.3 136.5 157.5L49.2 231" stroke="black" stroke-width="2" stroke-miterlimit="10"/>
<path d="M45.1 84.4001L48.1 86.7002L61.2 96.9001C61.5 97.1001 61.9 97.3002 62.3 97.2002L65.6 96.9001" stroke="black" stroke-width="2" stroke-miterlimit="10"/>
<path d="M104.6 72.9C103.6 72.2 102.3 71.8 100.8 72L53.1 77.7" stroke="black" stroke-width="2" stroke-miterlimit="10"/>
<path d="M66.8 156.2L65.7 155.4L52.6 145.5" stroke="black" stroke-width="2" stroke-miterlimit="10"/>
<path d="M113.4 27.1L121.5 20.3C122.6 19.4 122.5 17.7 121.4 16.9L102.1 2.30004C101.3 1.70004 100.2 1.70003 99.4 2.40003L90.6 9.80004" stroke="black" stroke-width="2" stroke-miterlimit="10"/>
<path d="M13.1 141.5L6.29997 147.2C4.69997 148.5 4.79998 151 6.39998 152.2L24 165.5C25.2 166.4 26.8 166.4 28 165.4L35.6 159" stroke="black" stroke-width="2" stroke-miterlimit="10"/>
<path d="M2.79999 90.1001C2.79999 90.2001 2.89999 90.2001 2.89999 90.3001" stroke="black" stroke-width="2" stroke-miterlimit="10"/>
<path d="M90.6 9.69995L3.39998 82.7999C0.999985 84.7999 1.1 88 2.7 90.1" stroke="black" stroke-width="2" stroke-miterlimit="10"/>
<path d="M45.1 84.4001L53.1 77.7001L113.4 27.1001" stroke="black" stroke-width="2" stroke-miterlimit="10"/>
<path d="M41.3 87.6002L45.1 84.4001" stroke="black" stroke-width="2" stroke-miterlimit="10"/>
<path d="M26.5 108.2C24.1 106.3 23.6 102.4 26.4 100.1L41.3 87.6001" stroke="black" stroke-width="2" stroke-miterlimit="10"/>
<path d="M35.2 159.3L35.7 158.9L52.6 145.5L96.8 110.4C99.6 108.2 99.2 104.3 97 102.4C96.8 102.2 96.6 102.1 96.4 101.9C95.4 101.3 94.2 100.9 92.9 101.1L58.1 105.6L30.4 109.2C28.9 109.4 27.6 109 26.6 108.2" stroke="black" stroke-width="2" stroke-miterlimit="10"/>
<path d="M58.1 105.7L13 141.4L12.3 142" stroke="black" stroke-width="2" stroke-miterlimit="10"/>
<path d="M41.3 87.5999L48.1 86.7" stroke="black" stroke-width="2" stroke-miterlimit="10"/>
<path d="M26.6 108.3L26.5 108.2L3.10004 90.4001L2.90002 90.3" stroke="black" stroke-width="2" stroke-miterlimit="10"/>
<path d="M2.79999 90.1001L3.10001 90.4001" stroke="black" stroke-width="2" stroke-miterlimit="10"/>
<path d="M87.4 95.1001L96.4 101.9L97 102.3" stroke="black" stroke-width="2" stroke-miterlimit="10"/>
<path d="M86.2 94.2L87.4 95.0999" stroke="black" stroke-width="2" stroke-miterlimit="10"/>
<defs>
<linearGradient id="paint0_linear_339_566" x1="18.6016" y1="193.373" x2="138.401" y2="193.373" gradientUnits="userSpaceOnUse">
<stop stop-color="#EFA498"/>
<stop offset="1" stop-color="#C658A1"/>
</linearGradient>
<linearGradient id="paint1_linear_339_566" x1="18.5985" y1="149.6" x2="138.398" y2="149.6" gradientUnits="userSpaceOnUse">
<stop stop-color="#EFA498"/>
<stop offset="1" stop-color="#C658A1"/>
</linearGradient>
<linearGradient id="paint2_linear_339_566" x1="52.6108" y1="90.2499" x2="129.693" y2="90.2499" gradientUnits="userSpaceOnUse">
<stop stop-color="#FCD5BF"/>
<stop offset="1" stop-color="#DE6E83"/>
</linearGradient>
<linearGradient id="paint3_linear_339_566" x1="24.5091" y1="98.0002" x2="96.4389" y2="98.0002" gradientUnits="userSpaceOnUse">
<stop stop-color="#5DCCF5"/>
<stop offset="1" stop-color="#A481BB"/>
</linearGradient>
<linearGradient id="paint4_linear_339_566" x1="52.6089" y1="122.291" x2="129.691" y2="122.291" gradientUnits="userSpaceOnUse">
<stop stop-color="#FCD5BF"/>
<stop offset="1" stop-color="#DE6E83"/>
</linearGradient>
</defs>
</svg>
